<svg xmlns="http://www.w3.org/2000/svg" viewBox="0 0 108.54 54.84"><defs><style>.cls-1{fill:#090442;}</style></defs><g id="Layer_2" data-name="Layer 2"><g id="Layer_1-2" data-name="Layer 1"><path class="cls-1" d="M48.48,30.3a3.21,3.21,0,0,0,2-.7l-.6-1.35a1.8,1.8,0,0,1-1.41.67,1.84,1.84,0,0,1-.06-3.68L47.5,24a3.22,3.22,0,0,0,1,6.28Z"/><path class="cls-1" d="M69.66,27.66a15.39,15.39,0,0,1-30.77,0l-1.43-.4v.16a16.82,16.82,0,1,0,33.63,0v-.17Z"/><path class="cls-1" d="M108.54,2.78l-1,1.82L67,16.06l1.46-1.94,6.86-1.94A26,26,0,0,0,55,1.44v9.18a16.94,16.94,0,0,1,8.48,2.74l-.86,1.14a15.37,15.37,0,0,0-16.73,0l-.86-1.14a16.88,16.88,0,0,1,8.54-2.75V1.44A26,26,0,0,0,33.22,12.18l6.84,1.94,1.46,1.94L1,4.6,0,2.78l31.76,9a27.42,27.42,0,0,1,45,0Z"/><path class="cls-1" d="M61.9,27.08a1.83,1.83,0,0,1-3.25,1.17l-.59,1.35a3.22,3.22,0,1,0,3-5.58l-.93,1.22A1.85,1.85,0,0,1,61.9,27.08Z"/><path class="cls-1" d="M54.28,48.11A20.71,20.71,0,0,1,33.59,27.42c0-.42,0-.83,0-1.25l-1.4-.4q-.06.82-.06,1.65a22.12,22.12,0,0,0,44.24,0c0-.55,0-1.1-.07-1.65l-1.4.4c0,.41,0,.83,0,1.25A20.71,20.71,0,0,1,54.28,48.11Z"/><path class="cls-1" d="M94.43,12.18a1.57,1.57,0,0,0-1.17-.51,1.6,1.6,0,1,0,1.57,1.92l9-2.56,1-1.82Zm-1.18,1.09h0v0Z"/><path class="cls-1" d="M101.26,15.61l-1,1.81L87.6,20.92V15.63l-23,6.51a6.7,6.7,0,0,1,2,3.32L82,21.11a1.61,1.61,0,1,1,.4,1.42l-15.57,4.4v.15a6.73,6.73,0,0,1-10.16,5.78l.56-1.28a5.34,5.34,0,1,0,5.18-9.32l1-1.28,25.74-7.29V19Z"/><path class="cls-1" d="M51.92,32.86a6.73,6.73,0,0,1-10.16-5.78v-.15L26.2,22.53a1.6,1.6,0,1,1,.4-1.42L42,25.46a6.68,6.68,0,0,1,2-3.32l-23-6.51v5.29L8.31,17.42l-1-1.81L19.47,19v-5.3L45.22,21l1,1.28a5.34,5.34,0,1,0,5.18,9.32Z"/><path class="cls-1" d="M80.13,24.7a24.65,24.65,0,0,1,.14,2.72,26,26,0,0,1-52,0c0-.91,0-1.82.14-2.72L27,24.31a29.32,29.32,0,0,0-.17,3.11A27.42,27.42,0,1,0,81.52,24.3Z"/><path class="cls-1" d="M15.28,11.67a1.55,1.55,0,0,0-1.16.51l-10.47-3,1,1.82,9,2.56a1.6,1.6,0,1,0,1.57-1.92Zm0,1.61v0h0Z"/><polygon class="cls-1" points="69.12 10.72 58.43 24.95 54.27 34.4 50.11 24.95 39.42 10.72 41.15 10.72 51.31 24.25 54.27 30.97 57.23 24.25 57.28 24.19 67.39 10.72 69.12 10.72"/><rect class="cls-1" x="53.56" y="36.67" width="1.43" height="16.93"/></g></g></svg>